<?xml version="1.0" encoding="UTF-8"?>
<svg width="150px" height="43px" viewBox="0 0 150 43" version="1.1" xmlns="http://www.w3.org/2000/svg" xmlns:xlink="http://www.w3.org/1999/xlink">
    <!-- Generator: Sketch 45.2 (43514) - http://www.bohemiancoding.com/sketch -->
    <title>hmcro-logo</title>
    <desc>Created with Sketch.</desc>
    <defs></defs>
    <g id="Favicons" stroke="none" stroke-width="1" fill="none" fill-rule="evenodd">
        <g id="hmcro-logo" fill="#FFFFFF">
            <g id="Group">
                <path d="M21.2104396,40.4521413 C10.6057172,40.4521413 1.98366008,31.8126749 1.98366008,21.2074551 C1.98366008,10.6057172 10.6057172,1.98216785 21.2104396,1.98216785 C31.8151619,1.98216785 40.4362242,10.6057172 40.4362242,21.2074551 C40.4362242,31.8126749 31.8151619,40.4521413 21.2104396,40.4521413 M21.2104396,0 C9.51241607,0 0,9.51191866 0,21.2074551 C0,32.9054786 9.51241607,42.4188895 21.2104396,42.4188895 C32.9064734,42.4188895 42.4188895,32.9054786 42.4188895,21.2074551 C42.4188895,9.51191866 32.9064734,0 21.2104396,0" id="Fill-1"></path>
                <path d="M21.195772,18.065901 L24.5726697,24.8674476 L29.6969591,20.7668223 L29.6969591,27.5708559 L12.3329697,27.5708559 L12.3329697,20.7339934 L17.803952,24.9843383 L21.195772,18.065901 Z M25.2163147,21.9526412 L21.195772,13.8145613 L17.1274781,22.0844541 L10.4542626,16.8955017 L10.4542626,29.4495631 L31.5736766,29.4495631 L31.5736766,16.8626729 L25.2163147,21.9526412 Z" id="Fill-4"></path>
                <path d="M21.2004554,9.43788699 C21.513822,9.43788699 21.7610334,9.68410357 21.7610334,9.99796754 C21.7610334,10.3108367 21.513822,10.5580481 21.2004554,10.5580481 C20.8875863,10.5580481 20.6388826,10.3108367 20.6388826,9.99796754 C20.6388826,9.68410357 20.8875863,9.43788699 21.2004554,9.43788699 M21.2004554,7.56067206 C19.8499947,7.56067206 18.7616677,8.64700947 18.7616677,9.99796754 C18.7616677,11.3330086 19.8499947,12.4357604 21.2004554,12.4357604 C22.5499212,12.4357604 23.6382483,11.3330086 23.6382483,9.99796754 C23.6382483,8.64700947 22.5499212,7.56067206 21.2004554,7.56067206" id="Fill-6"></path>
                <path d="M31.0946682,12.425814 C31.40704,12.425814 31.6542514,12.6730254 31.6542514,12.9863919 C31.6542514,13.2977689 31.40704,13.5449803 31.0946682,13.5449803 C30.7808043,13.5449803 30.5350851,13.2977689 30.5350851,12.9863919 C30.5350851,12.6730254 30.7808043,12.425814 31.0946682,12.425814 M31.0946682,10.5476042 C29.7437102,10.5476042 28.6558805,11.6339416 28.6558805,12.9863919 C28.6558805,14.321433 29.7437102,15.42319 31.0946682,15.42319 C32.4292119,15.42319 33.5319637,14.321433 33.5319637,12.9863919 C33.5319637,11.6339416 32.4292119,10.5476042 31.0946682,10.5476042" id="Fill-8"></path>
                <path d="M11.30674,13.5449803 C10.9918812,13.5449803 10.7451672,13.2977689 10.7451672,12.9863919 C10.7451672,12.6730254 10.9918812,12.425814 11.30674,12.425814 C11.6191117,12.425814 11.8668205,12.6730254 11.8668205,12.9863919 C11.8668205,13.2977689 11.6191117,13.5449803 11.30674,13.5449803 M11.30674,10.5476042 C9.97269377,10.5476042 8.86745488,11.6339416 8.86745488,12.9863919 C8.86745488,14.321433 9.97269377,15.42319 11.30674,15.42319 C12.6562058,15.42319 13.7445329,14.321433 13.7445329,12.9863919 C13.7445329,11.6339416 12.6562058,10.5476042 11.30674,10.5476042" id="Fill-10"></path>
                <polygon id="Fill-12" points="10.4542626 33.1675522 31.5881014 33.1675522 31.5881014 31.2694462 10.4542626 31.2694462"></polygon>
                <path d="M59.3116988,17.0815184 L59.3116988,7.46023647 L56.8995644,7.46023647 L56.8995644,10.9353454 L53.3835719,10.9353454 L53.3835719,7.46023647 L50.9578096,7.46023647 L50.9578096,17.0815184 L53.3835719,17.0815184 L53.3835719,12.9795271 L56.8995644,12.9795271 L56.8995644,17.0815184 L59.3116988,17.0815184 Z M71.808463,17.0815184 L71.808463,7.46023647 L68.2924704,7.46023647 L66.5072184,14.1924082 L64.6947106,7.46023647 L61.1787181,7.46023647 L61.1787181,17.0815184 L63.5227131,17.0815184 C63.5227131,17.0815184 63.5090853,11.2351587 63.4682016,9.88599876 L65.4578718,17.0815184 L67.5429371,17.0815184 L69.5462352,9.88599876 C69.4917237,11.7666459 69.4917237,17.0815184 69.4917237,17.0815184 L71.808463,17.0815184 Z M84.1144368,13.9198507 C83.7873678,14.4785937 83.2831363,15.3507778 82.0293715,15.3507778 C80.7347231,15.3507778 79.6581207,14.3014312 79.6581207,12.1891101 C79.6581207,10.5810205 80.4757934,9.13646546 82.0293715,9.13646546 C83.0105787,9.13646546 83.869135,9.88599876 84.0735532,10.6082763 L85.9814561,9.65432483 C85.3000622,8.20976976 83.6919726,7.16042315 81.9203485,7.16042315 C79.1947729,7.16042315 77.2596142,9.40902302 77.2596142,12.2572495 C77.2596142,15.5143124 79.3174238,17.3677038 81.865837,17.3677038 C83.869135,17.3677038 85.2455507,16.222962 86.0087119,14.88743 L84.1144368,13.9198507 Z M89.3202862,9.08195395 L89.3202862,7.46023647 L87.2352209,7.46023647 L87.2352209,9.08195395 L89.3202862,9.08195395 Z M89.3202862,17.0815184 L89.3202862,9.96776602 L87.2352209,9.96776602 L87.2352209,17.0815184 L89.3202862,17.0815184 Z M94.9213441,11.425949 L94.9213441,10.1449284 L93.5313006,10.1449284 L93.5313006,7.90995644 L91.4598631,7.90995644 L91.4598631,10.1313006 L90.4241444,10.1313006 L90.4241444,11.4123211 L91.4598631,11.4123211 L91.4598631,15.1191039 C91.4598631,16.781705 92.3456752,17.1360299 93.4904169,17.1360299 C94.2535781,17.1360299 94.6760423,17.0542626 94.8123211,17.0270068 L94.8123211,15.4052894 C94.8123211,15.4052894 94.2263223,15.4189172 94.0764157,15.4189172 C93.7493466,15.4189172 93.5313006,15.3098942 93.5313006,14.8329185 L93.5313006,11.425949 L94.9213441,11.425949 Z M98.1238955,9.08195395 L98.1238955,7.46023647 L96.0388301,7.46023647 L96.0388301,9.08195395 L98.1238955,9.08195395 Z M98.1238955,17.0815184 L98.1238955,9.96776602 L96.0388301,9.96776602 L96.0388301,17.0815184 L98.1238955,17.0815184 Z M106.041693,17.0815184 L106.041693,15.4598009 L102.253143,15.4598009 L106.041693,11.5758556 L106.041693,9.96776602 L99.9500311,9.96776602 L99.9500311,11.5758556 L103.384256,11.5758556 L99.5411948,15.5143124 L99.5411948,17.0815184 L106.041693,17.0815184 Z M114.123024,13.9607343 L109.039826,13.9607343 L109.039826,14.0425016 C109.039826,14.996453 109.693964,15.7323584 110.661543,15.7323584 C111.656378,15.7323584 112.242377,15.0509645 112.460423,14.4649658 L114.041257,15.2826385 C113.237212,16.6317984 111.96982,17.340448 110.498009,17.340448 C108.331176,17.340448 106.900249,15.9640324 106.900249,13.660921 C106.900249,11.8756689 107.772433,9.74971998 110.55252,9.74971998 C113.223584,9.74971998 114.123024,11.8892968 114.123024,13.8653391 L114.123024,13.9607343 Z M109.039826,12.652458 L111.956192,12.652458 C111.928936,11.8620411 111.397449,11.2487866 110.538892,11.2487866 C109.544057,11.2487866 109.135221,12.0800871 109.039826,12.652458 Z M121.700124,17.0815184 L121.700124,11.9710641 C121.700124,10.526509 120.936963,9.79060361 119.492408,9.79060361 C118.497573,9.79060361 117.829807,10.1858121 117.48911,10.5946484 L117.48911,9.96776602 L115.363161,9.96776602 L115.363161,17.0815184 L117.461854,17.0815184 L117.461854,13.102178 C117.461854,12.1482265 117.598133,11.4668326 118.565713,11.4668326 C119.410641,11.4668326 119.601431,12.0255756 119.601431,12.6933416 L119.601431,17.0815184 L121.700124,17.0815184 Z M50.9441817,23.234972 L55.495893,23.234972 C56.9268202,23.234972 59.1890479,23.6029247 59.1890479,26.3557561 C59.1890479,27.9911014 58.2623522,28.6452396 57.2130056,29.0131923 L59.4343497,32.8562539 L56.7905414,32.8562539 L54.8690106,29.4220286 L53.369944,29.4220286 L53.369944,32.8562539 L50.9441817,32.8562539 L50.9441817,23.234972 Z M53.3563161,25.020224 L53.3563161,27.6367766 L55.3459863,27.6367766 C56.722402,27.6367766 56.7905414,26.6010579 56.7905414,26.3012446 C56.7905414,25.0474798 55.7820784,25.020224 55.3596142,25.020224 L53.3563161,25.020224 Z M67.7609832,29.2993777 C67.7609832,31.6024891 66.3164281,33.0742999 63.9315495,33.0742999 C62.0781581,33.0742999 60.1157436,32.065837 60.1157436,29.2584941 C60.1157436,27.4596142 61.2059739,25.5244555 63.8634101,25.5244555 C66.8479154,25.5244555 67.7609832,27.595893 67.7609832,29.2993777 Z M65.6350342,29.3675171 C65.6350342,27.8548227 64.994524,27.1870566 63.8497822,27.1870566 C63.0593653,27.1870566 62.2280647,27.7866833 62.2280647,29.272122 C62.2280647,30.4577474 62.7322962,31.3980709 63.9588052,31.3980709 C65.1171749,31.3980709 65.6350342,30.4304916 65.6350342,29.3675171 Z M72.8441817,27.2006845 L72.8441817,25.919664 L71.4541381,25.919664 L71.4541381,23.684692 L69.3827007,23.684692 L69.3827007,25.9060361 L68.346982,25.9060361 L68.346982,27.1870566 L69.3827007,27.1870566 L69.3827007,30.8938395 C69.3827007,32.5564406 70.2685128,32.9107654 71.4132545,32.9107654 C72.1764157,32.9107654 72.5988799,32.8289981 72.7351587,32.8017424 L72.7351587,31.1800249 C72.7351587,31.1800249 72.1491599,31.1936528 71.9992533,31.1936528 C71.6721842,31.1936528 71.4541381,31.0846297 71.4541381,30.607654 L71.4541381,27.2006845 L72.8441817,27.2006845 Z M80.189608,32.8562539 L78.1317984,32.8562539 L78.1317984,32.2157436 C77.5730554,32.5836963 77.0415681,33.0470442 75.9513379,33.0470442 C74.3296204,33.0470442 73.6209708,31.9023024 73.6209708,30.8802116 C73.6209708,29.9943995 74.2342253,29.2039826 75.1200373,28.8360299 C75.6106409,28.6316117 76.3601742,28.481705 77.9273802,28.1818917 L77.9273802,27.7866833 C77.9273802,27.5413815 77.8864966,26.9281269 77.1233354,26.9281269 C76.2375233,26.9281269 76.0739888,27.4459863 76.0194773,27.7594275 L73.9207841,27.7594275 C73.9207841,26.1922215 75.3653391,25.5517113 76.9189172,25.5517113 C78.1454263,25.5517113 79.9851898,25.8787803 79.9851898,27.595893 L79.9851898,31.7523958 C79.9851898,32.3656503 80.0124456,32.5973242 80.189608,32.8562539 Z M77.9273802,29.4492844 L76.5782203,29.8990044 C75.8559428,30.1306783 75.6787803,30.4713752 75.6787803,30.7848164 C75.6787803,31.0301182 75.8831985,31.507094 76.4828251,31.507094 C77.3004978,31.507094 77.9273802,30.7711886 77.9273802,29.7627256 L77.9273802,29.4492844 Z M85.6135034,27.2006845 L85.6135034,25.919664 L84.2234599,25.919664 L84.2234599,23.684692 L82.1520224,23.684692 L82.1520224,25.9060361 L81.1163037,25.9060361 L81.1163037,27.1870566 L82.1520224,27.1870566 L82.1520224,30.8938395 C82.1520224,32.5564406 83.0378345,32.9107654 84.1825762,32.9107654 C84.9457374,32.9107654 85.3682016,32.8289981 85.5044804,32.8017424 L85.5044804,31.1800249 C85.5044804,31.1800249 84.9184816,31.1936528 84.768575,31.1936528 C84.4415059,31.1936528 84.2234599,31.0846297 84.2234599,30.607654 L84.2234599,27.2006845 L85.6135034,27.2006845 Z M88.8160548,24.8566895 L88.8160548,23.234972 L86.7309894,23.234972 L86.7309894,24.8566895 L88.8160548,24.8566895 Z M88.8160548,32.8562539 L88.8160548,25.7425016 L86.7309894,25.7425016 L86.7309894,32.8562539 L88.8160548,32.8562539 Z M97.8513379,29.2993777 C97.8513379,31.6024891 96.4067828,33.0742999 94.0219042,33.0742999 C92.1685128,33.0742999 90.2060983,32.065837 90.2060983,29.2584941 C90.2060983,27.4596142 91.2963286,25.5244555 93.9537648,25.5244555 C96.9382701,25.5244555 97.8513379,27.595893 97.8513379,29.2993777 Z M95.7253889,29.3675171 C95.7253889,27.8548227 95.0848787,27.1870566 93.9401369,27.1870566 C93.14972,27.1870566 92.3184194,27.7866833 92.3184194,29.272122 C92.3184194,30.4577474 92.8226509,31.3980709 94.0491599,31.3980709 C95.2075296,31.3980709 95.7253889,30.4304916 95.7253889,29.3675171 Z M105.578345,32.8562539 L105.578345,27.7457996 C105.578345,26.3012446 104.815184,25.5653391 103.370629,25.5653391 C102.375793,25.5653391 101.708027,25.9605476 101.36733,26.3693839 L101.36733,25.7425016 L99.2413815,25.7425016 L99.2413815,32.8562539 L101.340075,32.8562539 L101.340075,28.8769135 C101.340075,27.922962 101.476353,27.2415681 102.443933,27.2415681 C103.288861,27.2415681 103.479652,27.8003111 103.479652,28.4680772 L103.479652,32.8562539 L105.578345,32.8562539 Z M111.07038,28.0047293 C111.07038,25.8106409 112.3514,22.9351587 115.826509,22.9351587 C119.328874,22.9351587 120.705289,25.8242688 120.705289,28.1137523 C120.705289,30.6894213 118.947293,33.1424393 115.853765,33.1424393 C112.678469,33.1424393 111.07038,30.6485376 111.07038,28.0047293 Z M113.44163,27.9774736 C113.44163,29.5174238 114.136652,31.0982576 115.867393,31.0982576 C117.652645,31.0982576 118.293155,29.4356565 118.293155,28.0864966 C118.293155,26.3421282 117.529994,24.9520846 115.826509,24.9520846 C114.000373,24.9520846 113.44163,26.6828251 113.44163,27.9774736 Z M126.020162,27.1870566 L126.020162,25.9060361 L124.61649,25.9060361 L124.61649,25.4835719 C124.61649,24.9657125 124.68463,24.7885501 125.556814,24.7885501 L125.938395,24.7885501 L125.938395,23.2077162 C125.856627,23.1940884 125.175233,23.0850653 124.68463,23.0850653 C123.458121,23.0850653 122.545053,23.6574362 122.545053,24.8839452 L122.545053,25.9060361 L121.427567,25.9060361 L121.427567,27.1870566 L122.545053,27.1870566 L122.545053,32.8562539 L124.630118,32.8562539 L124.630118,27.1870566 L126.020162,27.1870566 Z M133.965215,24.8566895 L133.965215,23.234972 L131.880149,23.234972 L131.880149,24.8566895 L133.965215,24.8566895 Z M133.965215,32.8562539 L133.965215,25.7425016 L131.880149,25.7425016 L131.880149,32.8562539 L133.965215,32.8562539 Z M130.844431,27.1870566 L130.844431,25.9060361 L129.440759,25.9060361 L129.440759,25.4835719 C129.440759,24.9657125 129.508899,24.7885501 130.381083,24.7885501 L130.762663,24.7885501 L130.762663,23.2077162 C130.680896,23.1940884 129.999502,23.0850653 129.508899,23.0850653 C128.28239,23.0850653 127.369322,23.6574362 127.369322,24.8839452 L127.369322,25.9060361 L126.251836,25.9060361 L126.251836,27.1870566 L127.369322,27.1870566 L127.369322,32.8562539 L129.454387,32.8562539 L129.454387,27.1870566 L130.844431,27.1870566 Z M140.47934,30.3623522 C140.329434,30.8120722 139.920597,31.4253267 139.102925,31.4253267 C137.944555,31.4253267 137.522091,30.1851898 137.522091,29.2857498 C137.522091,28.4271935 137.917299,27.146173 139.034785,27.146173 C139.852458,27.146173 140.234039,27.7457996 140.424829,28.1410081 L141.978407,27.255196 C140.983572,25.6743622 139.5799,25.5380834 138.93939,25.5380834 C137.331301,25.5380834 135.368886,26.5056627 135.368886,29.3538892 C135.368886,32.0249533 137.235905,33.0879278 138.898507,33.0879278 C139.988737,33.0879278 141.256129,32.5836963 142.060174,31.1800249 L140.47934,30.3623522 Z M149.92346,29.7354698 L144.840261,29.7354698 L144.840261,29.8172371 C144.840261,30.7711886 145.4944,31.507094 146.461979,31.507094 C147.456814,31.507094 148.042813,30.8257001 148.260859,30.2397013 L149.841693,31.057374 C149.037648,32.4065339 147.770255,33.1151836 146.298444,33.1151836 C144.131612,33.1151836 142.700685,31.7387679 142.700685,29.4356565 C142.700685,27.6504045 143.572869,25.5244555 146.352956,25.5244555 C149.02402,25.5244555 149.92346,27.6640324 149.92346,29.6400747 L149.92346,29.7354698 Z M144.840261,28.4271935 L147.756627,28.4271935 C147.729371,27.6367766 147.197884,27.0235221 146.339328,27.0235221 C145.344493,27.0235221 144.935657,27.8548227 144.840261,28.4271935 Z" id="HM-Citizen-Rotation"></path>
            </g>
        </g>
    </g>
</svg>